<svg width="30" height="31" viewBox="0 0 30 31" fill="none" xmlns="http://www.w3.org/2000/svg">
<g clip-path="url(#clip0_4_122)">
<path d="M17.8711 15.437C17.8711 17.0227 16.5857 18.3081 15 18.3081C13.4143 18.3081 12.1289 17.0227 12.1289 15.437C12.1289 13.8513 13.4143 12.5659 15 12.5659C16.5857 12.5659 17.8711 13.8513 17.8711 15.437Z" fill="white"/>
<path d="M21.7144 10.3545C21.5764 9.98048 21.3562 9.64197 21.0701 9.36411C20.7923 9.078 20.454 8.85782 20.0797 8.7198C19.7763 8.60193 19.3203 8.46162 18.4806 8.4234C17.5721 8.38197 17.2997 8.37305 14.9999 8.37305C12.6999 8.37305 12.4275 8.38174 11.5193 8.42317C10.6796 8.46162 10.2234 8.60193 9.92014 8.7198C9.54591 8.85782 9.2074 9.078 8.92976 9.36411C8.64366 9.64197 8.42348 9.98026 8.28523 10.3545C8.16736 10.658 8.02705 11.1141 7.98883 11.9539C7.9474 12.8621 7.93848 13.1345 7.93848 15.4345C7.93848 17.7343 7.9474 18.0067 7.98883 18.9151C8.02705 19.7549 8.16736 20.2108 8.28523 20.5143C8.42348 20.8885 8.64343 21.2268 8.92954 21.5047C9.2074 21.7908 9.54569 22.011 9.91991 22.149C10.2234 22.2671 10.6796 22.4074 11.5193 22.4456C12.4275 22.487 12.6997 22.4957 14.9997 22.4957C17.3 22.4957 17.5723 22.487 18.4803 22.4456C19.3201 22.4074 19.7763 22.2671 20.0797 22.149C20.8309 21.8592 21.4247 21.2655 21.7144 20.5143C21.8323 20.2108 21.9726 19.7549 22.0111 18.9151C22.0525 18.0067 22.0612 17.7343 22.0612 15.4345C22.0612 13.1345 22.0525 12.8621 22.0111 11.9539C21.9728 11.1141 21.8325 10.658 21.7144 10.3545ZM14.9999 19.8572C12.5571 19.8572 10.5768 17.8771 10.5768 15.4343C10.5768 12.9914 12.5571 11.0114 14.9999 11.0114C17.4426 11.0114 19.4229 12.9914 19.4229 15.4343C19.4229 17.8771 17.4426 19.8572 14.9999 19.8572ZM19.5977 11.8701C19.0269 11.8701 18.5641 11.4073 18.5641 10.8365C18.5641 10.2657 19.0269 9.80287 19.5977 9.80287C20.1686 9.80287 20.6314 10.2657 20.6314 10.8365C20.6311 11.4073 20.1686 11.8701 19.5977 11.8701Z" fill="white"/>
<path d="M15 0.437012C6.717 0.437012 0 7.15401 0 15.437C0 23.72 6.717 30.437 15 30.437C23.283 30.437 30 23.72 30 15.437C30 7.15401 23.283 0.437012 15 0.437012ZM23.5613 18.9881C23.5197 19.905 23.3739 20.531 23.161 21.0789C22.7135 22.2359 21.7989 23.1506 20.6419 23.598C20.0942 23.8109 19.468 23.9565 18.5513 23.9983C17.6328 24.0402 17.3394 24.0503 15.0002 24.0503C12.6608 24.0503 12.3676 24.0402 11.4489 23.9983C10.5322 23.9565 9.90601 23.8109 9.35829 23.598C8.78334 23.3817 8.26286 23.0428 7.83257 22.6044C7.39449 22.1744 7.05551 21.6537 6.83922 21.0789C6.62636 20.5312 6.48056 19.905 6.4389 18.9883C6.39656 18.0696 6.38672 17.7762 6.38672 15.437C6.38672 13.0978 6.39656 12.8044 6.43867 11.8859C6.48033 10.969 6.6259 10.343 6.83876 9.79507C7.05505 9.22035 7.39426 8.69965 7.83257 8.26958C8.26263 7.83127 8.78334 7.49229 9.35806 7.276C9.90601 7.06314 10.532 6.91757 11.4489 6.87569C12.3674 6.8338 12.6608 6.82373 15 6.82373C17.3392 6.82373 17.6326 6.8338 18.5511 6.87592C19.468 6.91757 20.094 7.06314 20.6419 7.27577C21.2167 7.49207 21.7374 7.83127 22.1677 8.26958C22.6057 8.69987 22.9449 9.22035 23.161 9.79507C23.3741 10.343 23.5197 10.969 23.5616 11.8859C23.6034 12.8044 23.6133 13.0978 23.6133 15.437C23.6133 17.7762 23.6034 18.0696 23.5613 18.9881Z" fill="white"/>
</g>
<defs>
<clipPath id="clip0_4_122">
<rect width="30" height="30" fill="white" transform="translate(0 0.437012)"/>
</clipPath>
</defs>
</svg>
