<svg width="30" height="31" viewBox="0 0 30 31" fill="none" xmlns="http://www.w3.org/2000/svg">
<path d="M15 1.50049C12.2187 1.50049 9.49987 2.32524 7.1873 3.87045C4.87473 5.41565 3.07231 7.61192 2.00795 10.1815C0.943593 12.7511 0.665109 15.5786 1.20771 18.3064C1.75032 21.0343 3.08964 23.54 5.05632 25.5067C7.02299 27.4734 9.52869 28.8127 12.2565 29.3553C14.9844 29.8979 17.8119 29.6194 20.3815 28.555C22.9511 27.4907 25.1473 25.6883 26.6925 23.3757C28.2378 21.0631 29.0625 18.3443 29.0625 15.563C29.0612 11.8338 27.5791 8.25773 24.9422 5.62079C22.3053 2.98385 18.7292 1.50184 15 1.50049ZM23.4188 9.61924L20.6813 22.0411C20.6541 22.1601 20.5976 22.2704 20.517 22.362C20.4363 22.4536 20.334 22.5235 20.2194 22.5655C20.1047 22.6074 19.9814 22.62 19.8607 22.6021C19.74 22.5842 19.6257 22.5364 19.5281 22.463L15.6 19.4911L13.4531 21.6005C13.41 21.6431 13.3548 21.6716 13.2951 21.682C13.2353 21.6924 13.1738 21.6844 13.1187 21.6589C13.0637 21.6334 13.0177 21.5917 12.987 21.5394C12.9563 21.4871 12.9423 21.4266 12.9469 21.3661L13.2094 17.7755L20.1844 11.3536C20.2088 11.3327 20.2245 11.3033 20.2283 11.2714C20.232 11.2394 20.2236 11.2072 20.2047 11.1812C20.1857 11.1552 20.1577 11.1372 20.1261 11.131C20.0946 11.1247 20.0618 11.1305 20.0344 11.1474L10.8188 16.7817L6.93751 15.4599C6.82995 15.4244 6.73609 15.3563 6.6689 15.2651C6.60171 15.1739 6.56451 15.0641 6.56246 14.9509C6.5604 14.8376 6.59358 14.7266 6.65741 14.633C6.72124 14.5394 6.81256 14.468 6.91876 14.4286L22.2 8.57861C22.3532 8.51993 22.5194 8.50364 22.681 8.53147C22.8427 8.55929 22.9939 8.6302 23.1186 8.73672C23.2434 8.84325 23.3371 8.98144 23.3899 9.13675C23.4428 9.29206 23.4527 9.45874 23.4188 9.61924Z" fill="white"/>
</svg>
