<svg width="30" height="31" viewBox="0 0 30 31" fill="none" xmlns="http://www.w3.org/2000/svg">
<g clip-path="url(#clip0_4_111)">
<path d="M18.0435 14.0492C18.1126 14.0559 18.1817 14.0352 18.2359 13.9917C18.2901 13.9482 18.3252 13.8853 18.3336 13.8163C18.3467 13.7194 18.354 13.6219 18.3553 13.5242C18.3543 12.8257 18.0759 12.1562 17.5815 11.6629C17.087 11.1695 16.4169 10.8927 15.7185 10.8932C15.6209 10.8926 15.5233 10.8979 15.4264 10.909C15.392 10.9128 15.3587 10.9233 15.3285 10.9399C15.2982 10.9565 15.2714 10.9789 15.2498 11.0059C15.2282 11.0328 15.2121 11.0637 15.2024 11.0969C15.1927 11.1301 15.1897 11.1648 15.1935 11.1992C15.1972 11.2335 15.2077 11.2668 15.2243 11.2971C15.2409 11.3274 15.2633 11.3541 15.2903 11.3757C15.3172 11.3973 15.3482 11.4134 15.3813 11.4231C15.4145 11.4328 15.4492 11.4358 15.4836 11.4321C15.5615 11.4225 15.64 11.4179 15.7185 11.4182C16.2767 11.4193 16.8117 11.6415 17.2064 12.0362C17.6011 12.4309 17.8233 12.966 17.8244 13.5242C17.8238 13.6026 17.8192 13.681 17.8106 13.759C17.8039 13.8282 17.8245 13.8973 17.868 13.9515C17.9115 14.0057 17.9745 14.0407 18.0435 14.0492Z" fill="white"/>
<path d="M15.7185 11.9452C15.6819 11.942 15.6452 11.9465 15.6105 11.9583C15.5758 11.9701 15.5439 11.989 15.5169 12.0138C15.4899 12.0385 15.4683 12.0687 15.4535 12.1022C15.4388 12.1358 15.4312 12.172 15.4312 12.2087C15.4312 12.2453 15.4388 12.2816 15.4535 12.3152C15.4683 12.3487 15.4899 12.3788 15.5169 12.4036C15.5439 12.4284 15.5758 12.4473 15.6105 12.4591C15.6452 12.4709 15.6819 12.4753 15.7185 12.4722C15.8571 12.4714 15.9945 12.498 16.1228 12.5505C16.2512 12.6031 16.3678 12.6804 16.4661 12.7782C16.5645 12.876 16.6425 12.9922 16.6957 13.1202C16.7489 13.2482 16.7763 13.3855 16.7763 13.5242C16.7821 13.5901 16.8123 13.6515 16.8611 13.6962C16.9099 13.741 16.9736 13.7658 17.0398 13.7658C17.106 13.7658 17.1698 13.741 17.2186 13.6962C17.2674 13.6515 17.2976 13.5901 17.3033 13.5242C17.3033 13.3163 17.2623 13.1105 17.1826 12.9185C17.1028 12.7266 16.986 12.5523 16.8388 12.4056C16.6915 12.2589 16.5168 12.1427 16.3245 12.0637C16.1323 11.9847 15.9263 11.9444 15.7185 11.9452Z" fill="white"/>
<path d="M17.5087 15.7267C17.4175 15.6302 17.303 15.5588 17.1761 15.5194C17.0493 15.4799 16.9145 15.4738 16.7846 15.5015C16.6548 15.5293 16.5342 15.59 16.4346 15.6779C16.335 15.7657 16.2597 15.8777 16.2159 16.0031C16.1482 16.1828 16.0172 16.3317 15.8475 16.4218C15.6778 16.5119 15.4811 16.5371 15.2942 16.4925C14.4653 16.2754 13.3541 15.18 13.1547 14.3037C13.1055 14.1154 13.131 13.9153 13.2259 13.7454C13.3208 13.5754 13.4778 13.4487 13.6639 13.3919C13.7901 13.3506 13.9035 13.2776 13.9934 13.18C14.0832 13.0823 14.1465 12.9632 14.1772 12.8341C14.2079 12.705 14.205 12.5702 14.1687 12.4425C14.1324 12.3149 14.0639 12.1987 13.9699 12.105L12.8172 10.9208C12.6655 10.7787 12.4659 10.6986 12.258 10.6965C12.0501 10.6943 11.8489 10.7701 11.6942 10.909L10.9047 11.6985C10.1054 12.5215 10.9541 14.736 12.8784 16.7136C14.8028 18.6912 17.0074 19.6287 17.8482 18.8057L18.6376 18.0162C18.7802 17.8647 18.8605 17.6651 18.8627 17.457C18.8649 17.249 18.7888 17.0477 18.6495 16.8932L17.5087 15.7267Z" fill="white"/>
<path d="M15 0.562988C12.0333 0.562988 9.13319 1.44272 6.66645 3.09094C4.19972 4.73917 2.27713 7.08185 1.14181 9.82274C0.00649923 12.5636 -0.290551 15.5796 0.288228 18.4893C0.867006 21.3991 2.29562 24.0718 4.3934 26.1696C6.49119 28.2674 9.16394 29.696 12.0737 30.2748C14.9834 30.8535 17.9994 30.5565 20.7403 29.4212C23.4811 28.2859 25.8238 26.3633 27.4721 23.8965C29.1203 21.4298 30 18.5297 30 15.563C30 11.5847 28.4197 7.76943 25.6066 4.95639C22.7936 2.14334 18.9783 0.562988 15 0.562988V0.562988ZM22.1053 15.563C22.1053 17.0287 21.523 18.4343 20.4866 19.4707C19.4503 20.5071 18.0446 21.0893 16.579 21.0893H13.7941L11.5007 23.3827C11.4636 23.4185 11.4169 23.4426 11.3663 23.4522C11.3157 23.4618 11.2635 23.4564 11.2159 23.4367C11.1683 23.417 11.1275 23.3839 11.0985 23.3413C11.0695 23.2988 11.0536 23.2487 11.0526 23.1972V20.5584C10.1074 20.11 9.30887 19.4026 8.74985 18.5183C8.19083 17.634 7.8943 16.6092 7.89474 15.563V13.1946C7.89474 11.7289 8.47698 10.3233 9.51336 9.28687C10.5498 8.25049 11.9554 7.66825 13.4211 7.66825H16.579C18.0446 7.66825 19.4503 8.25049 20.4866 9.28687C21.523 10.3233 22.1053 11.7289 22.1053 13.1946V15.563Z" fill="white"/>
<path d="M15.7184 9.83923C15.6237 9.83923 15.5289 9.84318 15.4342 9.85108C15.3646 9.85631 15.2999 9.88899 15.2543 9.94192C15.2088 9.99485 15.1862 10.0637 15.1914 10.1333C15.1966 10.2029 15.2293 10.2676 15.2823 10.3131C15.3352 10.3587 15.404 10.3813 15.4737 10.3761H15.7184C16.5559 10.3761 17.3591 10.7088 17.9514 11.301C18.5436 11.8932 18.8763 12.6964 18.8763 13.534C18.8769 13.7792 18.8484 14.0237 18.7914 14.2623C18.7804 14.2969 18.7767 14.3335 18.7805 14.3696C18.7843 14.4058 18.7955 14.4408 18.8134 14.4724C18.8313 14.504 18.8555 14.5316 18.8845 14.5535C18.9136 14.5754 18.9468 14.591 18.9822 14.5994C19.0176 14.6078 19.0543 14.6089 19.0901 14.6025C19.1258 14.5961 19.1599 14.5824 19.1902 14.5623C19.2204 14.5421 19.2462 14.5159 19.2659 14.4854C19.2856 14.4548 19.2987 14.4205 19.3046 14.3846C19.37 14.1058 19.4031 13.8204 19.4033 13.534C19.4043 12.5555 19.0167 11.6166 18.3257 10.9237C17.6348 10.2309 16.6969 9.8408 15.7184 9.83923Z" fill="white"/>
</g>
<defs>
<clipPath id="clip0_4_111">
<rect width="30" height="30" fill="white" transform="translate(0 0.562988)"/>
</clipPath>
</defs>
</svg>
