<svg width="40" height="32" viewBox="0 0 40 32" fill="#022346" xmlns="http://www.w3.org/2000/svg">
    <path d="M38.6712 9.08643L22.7262 1.2972C21.3517 0.609917 19.0149 0.609917 17.6403 1.2972L1.32875 9.08643C0.183276 9.63626 0 10.4152 0 10.8276C0 11.2399 0.183276 11.973 1.32875 12.5687L2.6575 13.2101V20.5412C1.83276 20.8619 1.23711 21.6867 1.23711 22.603C1.23711 23.5194 1.83276 24.3442 2.61168 24.6649L0.549828 31.217H6.32302L4.26117 24.6649C5.08591 24.3442 5.63574 23.5194 5.63574 22.603C5.63574 21.6408 5.04009 20.8619 4.21535 20.5412V13.9891L6.64376 15.1804V24.7107C6.64376 24.8482 6.68958 24.9856 6.78121 25.1231C7.01031 25.398 11.2715 31.217 19.9771 31.217C28.6827 31.217 32.9439 25.3522 33.1271 25.1231C33.2188 24.9856 33.2646 24.8482 33.2646 24.7107V15.2262L38.6712 12.5687C39.8167 12.0188 40 11.2399 40 10.8276C39.9542 10.4152 39.8167 9.63626 38.6712 9.08643ZM31.7984 24.4816C31.0653 25.398 27.1249 29.7966 19.9771 29.7966C12.8293 29.7966 8.88889 25.398 8.15578 24.4816V15.8218L17.6403 20.3579C18.3276 20.6786 19.244 20.8619 20.1604 20.8619C21.1226 20.8619 22.0389 20.6786 22.7262 20.3121L31.7984 15.8676V24.4816ZM38.0298 11.2857L32.5315 13.9891C32.3024 13.9891 32.1191 14.0807 32.0275 14.264L22.0848 19.075C21.1226 19.579 19.244 19.579 18.236 19.075L6.00229 13.2101L20.0687 11.5607C20.4811 11.5148 20.756 11.1483 20.7102 10.7817C20.6644 10.3694 20.2978 10.0945 19.9313 10.1403L3.6197 12.0647L1.97022 11.2857C1.55785 11.1025 1.46621 10.8734 1.46621 10.8734C1.46621 10.8276 1.55785 10.6443 1.97022 10.461L18.2818 2.62595C18.7858 2.39686 19.4731 2.2594 20.1604 2.2594C20.8935 2.2594 21.6266 2.39686 22.0848 2.62595L38.0298 10.4152C38.4422 10.5985 38.5338 10.7817 38.5338 10.8734C38.5338 10.8734 38.3963 11.1025 38.0298 11.2857Z" />
</svg>
