<svg width="40" height="40" viewBox="0 0 40 40" fill="#022346" xmlns="http://www.w3.org/2000/svg">
    <g clip-path="url(#clip0_41_1318)">
        <path d="M9.48891 30.9566C8.24185 30.9567 7.02279 30.5869 5.98589 29.8941C4.94899 29.2013 4.14082 28.2165 3.66358 27.0644C3.18634 25.9123 3.06146 24.6445 3.30474 23.4214C3.54802 22.1983 4.14853 21.0749 5.03033 20.1931C5.91214 19.3113 7.03562 18.7107 8.25872 18.4675C9.48181 18.2242 10.7496 18.3491 11.9017 18.8263C13.0538 19.3035 14.0386 20.1117 14.7314 21.1486C15.4242 22.1855 15.7939 23.4046 15.7939 24.6516C15.7919 26.3232 15.127 27.9258 13.945 29.1077C12.763 30.2897 11.1605 30.9546 9.48891 30.9566ZM9.48891 19.9098C8.55089 19.9097 7.63393 20.1878 6.85399 20.709C6.07404 21.2301 5.46614 21.9708 5.10715 22.8374C4.74817 23.704 4.65423 24.6576 4.83721 25.5776C5.02019 26.4976 5.47187 27.3426 6.13513 28.0059C6.7984 28.6692 7.64346 29.1209 8.56345 29.3039C9.48344 29.4869 10.437 29.393 11.3037 29.0341C12.1703 28.6751 12.911 28.0672 13.4321 27.2873C13.9533 26.5074 14.2314 25.5904 14.2314 24.6524C14.2303 23.3949 13.7303 22.1892 12.8411 21.2999C11.952 20.4106 10.7464 19.9104 9.48891 19.909V19.9098Z" />
        <path d="M17.1802 39.9994H1.79883C1.59163 39.9994 1.39291 39.9171 1.2464 39.7706C1.09989 39.624 1.01758 39.4253 1.01758 39.2181V37.638C1.01758 34.2786 3.6582 31.9319 7.4407 31.9319H11.5384C15.3196 31.9319 17.9615 34.2783 17.9615 37.638V39.2181C17.9615 39.4253 17.8792 39.624 17.7327 39.7706C17.5861 39.9171 17.3874 39.9994 17.1802 39.9994ZM2.58008 38.4369H16.399V37.638C16.399 34.7756 13.9577 33.4944 11.5384 33.4944H7.4407C5.02133 33.4944 2.58008 34.7756 2.58008 37.638V38.4369Z" />
        <path d="M20 39.9994C19.7928 39.9994 19.5941 39.9171 19.4476 39.7706C19.3011 39.6241 19.2188 39.4254 19.2188 39.2181C19.2188 39.0109 19.3011 38.8122 19.4476 38.6657C19.5941 38.5192 19.7928 38.4369 20 38.4369C23.6466 38.4369 27.2113 37.3556 30.2433 35.3296C33.2754 33.3037 35.6385 30.4241 37.034 27.0551C38.4295 23.6861 38.7946 19.9789 38.0832 16.4024C37.3718 12.8259 35.6158 9.54065 33.0373 6.96212C30.4587 4.38359 27.1735 2.62758 23.597 1.91617C20.0205 1.20475 16.3133 1.56988 12.9443 2.96537C9.57526 4.36086 6.69572 6.72404 4.66978 9.75607C2.64384 12.7881 1.5625 16.3528 1.5625 19.9994C1.5625 20.2066 1.48019 20.4053 1.33368 20.5518C1.18716 20.6983 0.98845 20.7806 0.78125 20.7806C0.57405 20.7806 0.375336 20.6983 0.228823 20.5518C0.08231 20.4053 0 20.2066 0 19.9994C0 16.0438 1.17298 12.177 3.37061 8.88799C5.56824 5.59901 8.69181 3.03556 12.3463 1.52181C16.0009 0.00805527 20.0222 -0.388011 23.9018 0.383693C27.7814 1.1554 31.3451 3.06021 34.1421 5.85726C36.9392 8.65431 38.844 12.218 39.6157 16.0976C40.3874 19.9772 39.9913 23.9985 38.4776 27.6531C36.9638 31.3076 34.4004 34.4312 31.1114 36.6288C27.8224 38.8264 23.9556 39.9994 20 39.9994Z" />
        <path d="M24.608 23.4417C24.4708 23.4418 24.336 23.4056 24.2173 23.3369L19.608 20.6759C19.4895 20.6072 19.3911 20.5085 19.3228 20.3898C19.2545 20.271 19.2186 20.1364 19.2188 19.9994V9.0011C19.2188 8.8985 19.239 8.79691 19.2782 8.70213C19.3175 8.60734 19.375 8.52122 19.4476 8.44867C19.5201 8.37613 19.6062 8.31858 19.701 8.27932C19.7958 8.24006 19.8974 8.21985 20 8.21985C20.1026 8.21985 20.2042 8.24006 20.299 8.27932C20.3938 8.31858 20.4799 8.37613 20.5524 8.44867C20.625 8.52122 20.6825 8.60734 20.7218 8.70213C20.761 8.79691 20.7813 8.8985 20.7813 9.0011V19.548L25 21.9838C25.149 22.0697 25.2655 22.2024 25.3313 22.3614C25.3972 22.5203 25.4088 22.6965 25.3642 22.8627C25.3197 23.0288 25.2216 23.1756 25.0851 23.2803C24.9486 23.3851 24.7814 23.4418 24.6094 23.4417H24.608Z" />
        <path d="M20.0004 36.3017C19.7932 36.3017 19.5945 36.2194 19.448 36.0729C19.3014 35.9264 19.2191 35.7276 19.2191 35.5205C19.2191 35.3132 19.3014 35.1145 19.448 34.968C19.5945 34.8215 19.7932 34.7392 20.0004 34.7392C22.8196 34.7399 25.5799 33.9325 27.9542 32.4125C30.3285 30.8925 32.2174 28.7237 33.3968 26.1631C34.5763 23.6026 34.9971 20.7575 34.6091 17.9651C34.2212 15.1728 33.0409 12.5501 31.2082 10.408C29.3754 8.2659 26.9669 6.69409 24.2682 5.87886C21.5694 5.06362 18.6936 5.03913 15.9813 5.80828C13.2691 6.57744 10.8342 8.108 8.96521 10.2186C7.0962 12.3292 5.87142 14.9313 5.43601 17.7167C5.42099 17.8187 5.38593 17.9168 5.33283 18.0052C5.27973 18.0936 5.20966 18.1706 5.12665 18.2318C5.04364 18.293 4.94933 18.3371 4.84917 18.3617C4.74902 18.3863 4.64499 18.3908 4.54308 18.3749C4.44118 18.3591 4.34342 18.3232 4.25544 18.2694C4.16747 18.2156 4.09102 18.1449 4.0305 18.0614C3.96998 17.9779 3.9266 17.8832 3.90284 17.7829C3.87909 17.6825 3.87544 17.5785 3.8921 17.4767C4.37415 14.3975 5.72873 11.5209 7.79536 9.18788C9.86199 6.85483 12.5541 5.16305 15.5526 4.31296C18.5512 3.46288 21.7306 3.49011 24.7142 4.39144C27.6977 5.29277 30.3604 7.03043 32.3868 9.39854C34.4131 11.7666 35.7182 14.666 36.1475 17.753C36.5767 20.84 36.112 23.9854 34.8086 26.8165C33.5051 29.6476 31.4175 32.0458 28.793 33.7268C26.1685 35.4079 23.1171 36.3015 20.0004 36.3017Z" />
    </g>
    <defs>
        <clipPath id="clip0_41_1318">
            <rect width="40" height="40" fill="white" transform="translate(0 -0.000610352)"/>
        </clipPath>
    </defs>
</svg>
