<svg width="40" height="40" viewBox="0 0 40 40" fill="#022346" xmlns="http://www.w3.org/2000/svg">
<g clip-path="url(#clip0_41_1368)">
<path d="M36.3302 22.8315C36.0694 22.5663 35.9437 22.2054 35.9852 21.8412C36.1248 20.6186 36.1248 19.3801 35.9852 18.1576C35.9437 17.7934 36.0694 17.4324 36.3302 17.1673L37.6156 15.861C38.7612 14.6945 38.9906 12.8919 38.1736 11.4776L36.4679 8.52126C35.6508 7.10689 33.9747 6.40447 32.3903 6.81353L30.6174 7.27376C30.2563 7.36744 29.8802 7.29548 29.5855 7.0765C28.5954 6.3408 27.5219 5.71994 26.3947 5.23111C26.0597 5.08587 25.8107 4.79666 25.7115 4.43767L25.2244 2.67509C24.7871 1.09962 23.3409 -0.000610352 21.7073 -0.000610352H18.2945C16.6583 -0.000610352 15.2119 1.10017 14.7773 2.67541L14.2893 4.43775C14.1899 4.7965 13.9409 5.08556 13.6063 5.23064C12.4785 5.71955 11.4047 6.34056 10.4145 7.07642C10.1196 7.29556 9.74345 7.36736 9.38251 7.27369L7.60845 6.81322C6.02657 6.40494 4.35079 7.10705 3.53392 8.52119L1.82642 11.4771C1.00868 12.8927 1.23907 14.6956 2.38649 15.8612L3.67009 17.1667C3.93079 17.4319 4.05642 17.7927 4.01477 18.1566C3.87509 19.3797 3.87509 20.619 4.01477 21.8421C4.05642 22.206 3.93079 22.5667 3.67009 22.832L2.38688 24.137C1.23915 25.303 1.00868 27.106 1.82642 28.5215L3.53392 31.4774C4.35071 32.8917 6.02649 33.5941 7.60931 33.1852L9.38243 32.725C9.74345 32.6314 10.1195 32.7033 10.4144 32.9223C11.4047 33.6581 12.4785 34.2792 13.6061 34.7681C13.9409 34.9131 14.1899 35.2023 14.2891 35.5609L14.777 37.3225C15.2119 38.8986 16.6583 39.9994 18.2945 39.9994H21.7074C23.3409 39.9994 24.7872 38.8992 25.2246 37.323L25.7115 35.5612C25.8108 35.2021 26.0597 34.913 26.3947 34.7677C27.5219 34.2789 28.5954 33.6581 29.5855 32.9224C29.8802 32.7033 30.2565 32.6313 30.6173 32.7251L32.3913 33.1856C33.9747 33.5942 35.6509 32.892 36.4682 31.4772L38.1734 28.5217C38.9907 27.107 38.7613 25.3042 37.6152 24.1374L36.3302 22.8315ZM36.8202 27.7404L35.1149 30.696C34.6477 31.505 33.688 31.9068 32.7829 31.6728L31.0098 31.2126C30.1888 30.9998 29.33 31.1656 28.6536 31.6682C27.7595 32.3325 26.7903 32.8931 25.7731 33.3342C25.0026 33.6683 24.4311 34.3283 24.2055 35.1449L23.7188 36.906C23.4685 37.8073 22.6414 38.4369 21.7073 38.4369H18.2945C17.3588 38.4369 16.5318 37.8078 16.2832 36.9063L15.7951 35.1438C15.5691 34.328 14.9979 33.6685 14.2277 33.3345C13.21 32.8933 12.2405 32.3327 11.3463 31.6682C10.863 31.3091 10.2867 31.1219 9.69751 31.1219C9.46196 31.1219 9.22431 31.1518 8.98985 31.2126L7.21767 31.6726C6.31282 31.9066 5.35399 31.5048 4.88673 30.696L3.17931 27.74C2.71188 26.9309 2.84384 25.9 3.50056 25.2329L4.78415 23.9274C5.3772 23.3242 5.66251 22.4995 5.56704 21.6646C5.44079 20.5594 5.44079 19.4395 5.56704 18.3342C5.66251 17.4992 5.37712 16.6745 4.78415 16.0713L3.50017 14.7654C2.84384 14.0987 2.71181 13.0678 3.17931 12.2587L4.88681 9.30275C5.35391 8.49408 6.31196 8.09212 7.21681 8.32587L8.98993 8.78611C9.81087 8.99908 10.6699 8.83322 11.3462 8.33048C12.2404 7.66603 13.2099 7.10541 14.2277 6.66416C14.9977 6.33025 15.569 5.67072 15.7951 4.85478L16.2833 3.09166C16.5318 2.19095 17.3588 1.56189 18.2945 1.56189H21.7074C22.6415 1.56189 23.4686 2.1915 23.7185 3.09205L24.2054 4.85384C24.4311 5.67048 25.0025 6.33041 25.773 6.66462C26.7902 7.10572 27.7595 7.66626 28.6535 8.33056C29.3299 8.8333 30.1887 8.99923 31.0098 8.78619L32.7819 8.32619C33.688 8.0922 34.6476 8.49376 35.1146 9.30244L36.8203 12.2588C37.2876 13.0677 37.1563 14.0988 36.5013 14.7656L35.2165 16.0714C34.6231 16.6746 34.3374 17.4995 34.4328 18.3349C34.559 19.4397 34.559 20.5592 34.4328 21.6639C34.3374 22.4992 34.6231 23.3242 35.2165 23.9274L36.5008 25.2327C37.1563 25.8999 37.2877 26.9311 36.8202 27.7404Z" />
<path d="M29.5294 14.1784C29.1465 14.3774 28.9974 14.8491 29.1963 15.2319C29.8297 16.4508 30.2057 17.7523 30.3194 19.1112H29.2303C28.7989 19.1112 28.449 19.4611 28.449 19.8925C28.449 20.3239 28.7989 20.6737 29.2303 20.6737H30.3343C30.0024 25.8127 25.9062 29.9427 20.7815 30.3267V29.1226C20.7815 28.6912 20.4317 28.3413 20.0003 28.3413C19.5689 28.3413 19.219 28.6912 19.219 29.1226V30.3267C14.0943 29.9427 9.99816 25.8127 9.66613 20.6738H10.7702C11.2016 20.6738 11.5514 20.324 11.5514 19.8926C11.5514 19.4612 11.2016 19.1113 10.7702 19.1113H9.68207C10.1121 14.072 14.1655 10.0507 19.219 9.67203V10.6624C19.219 11.0938 19.5689 11.4437 20.0003 11.4437C20.4317 11.4437 20.7815 11.0938 20.7815 10.6624V9.67227C22.1562 9.77328 23.4736 10.141 24.7069 10.7714C25.091 10.9677 25.5618 10.8155 25.7582 10.4313C25.9546 10.0471 25.8022 9.57648 25.4181 9.38008C23.7304 8.5175 21.9076 8.08008 20.0002 8.08008C13.4279 8.08008 8.08105 13.427 8.08105 19.9992C8.08105 26.5715 13.428 31.9185 20.0003 31.9185C26.5725 31.9185 31.9194 26.5716 31.9194 19.9994C31.9194 18.092 31.4572 16.1944 30.5829 14.5116C30.3839 14.1287 29.9121 13.9796 29.5294 14.1784V14.1784Z" />
<path d="M19.9997 13.1558C19.5683 13.1558 19.2185 13.5056 19.2185 13.937V19.6757L16.6526 22.2415C16.3476 22.5466 16.3476 23.0413 16.6526 23.3465C16.8052 23.499 17.0051 23.5753 17.2051 23.5753C17.405 23.5753 17.6049 23.499 17.7575 23.3465L20.5521 20.5519C20.6986 20.4053 20.7809 20.2066 20.7809 19.9994V13.9371C20.781 13.5056 20.4312 13.1558 19.9997 13.1558V13.1558Z" />
<path d="M27.1113 12.3799C27.275 12.7725 27.7379 12.966 28.1317 12.8025C28.5245 12.6395 28.7172 12.1754 28.5544 11.7821C28.3916 11.3889 27.9273 11.1967 27.534 11.3596C27.1394 11.5229 26.9499 11.9857 27.1113 12.3799Z"/>
</g>
<defs>
<clipPath id="clip0_41_1368">
<rect width="40" height="40" fill="white" transform="translate(0 -0.000610352)"/>
</clipPath>
</defs>
</svg>
