<svg width="12" height="12" viewBox="0 0 12 12" fill="none" xmlns="http://www.w3.org/2000/svg">
    <g clip-path="url(#clip0_2_148)">
        <path d="M10.8719 0.0057373C10.6274 0.0057373 10.3641 0.105916 10.0903 0.294698L3.42558 4.88617C2.99656 5.18165 2.76294 5.57925 2.76294 6.00613C2.76284 6.4331 3.00074 6.83099 3.42985 7.12647L10.1003 11.7146C10.3746 11.9035 10.649 12 10.893 12H10.8933C11.155 12 11.3533 11.8929 11.5079 11.6846C11.6603 11.4789 11.7192 11.1867 11.7192 10.8333V1.17948C11.7193 0.455664 11.4083 0.0057373 10.8719 0.0057373Z" fill="white"/>
        <path d="M1.29132 0.000875344L0.970072 0C0.60836 0 0.280884 0.294505 0.280884 0.656411V11.341C0.280884 11.7029 0.597564 11.9999 0.95947 11.9999H0.970558L1.28539 11.9982C1.6472 11.9982 1.96845 11.7024 1.96845 11.3405V0.657189C1.96855 0.295283 1.65274 0.000875344 1.29132 0.000875344Z" fill="white"/>
    </g>
    <defs>
        <clipPath id="clip0_2_148">
            <rect width="12" height="12" fill="white"/>
        </clipPath>
    </defs>
</svg>
