<svg width="53" height="60" viewBox="0 0 53 60" fill="none" xmlns="http://www.w3.org/2000/svg">
    <path fill-rule="evenodd" clip-rule="evenodd" d="M15.2992 5.87973C14.134 6.5559 10.6034 8.58976 7.45511 10.4018C3.24442 12.8285 1.59543 13.8214 1.22661 14.1648C0.654974 14.6907 0.25615 15.3774 0.0827328 16.1345C0.0078998 16.4927 -0.0121447 19.9243 0.00656354 29.1702L0.0332892 41.718L4.57672 31.0116C7.08229 25.1225 9.14687 20.3252 9.17627 20.3572C9.20567 20.3893 10.1691 23.2156 11.3144 26.6379L13.4017 32.8597L9.98874 40.8668C8.11792 45.2766 6.56246 48.9341 6.54509 49.0076C6.50901 49.1639 24.3861 59.5149 25.2052 59.8129C26.0335 60.0729 26.9233 60.0608 27.7442 59.7782C28.4671 59.4976 46.3068 49.18 46.3068 49.0437C46.3068 48.9835 45.5558 47.0325 44.6377 44.7074C43.7197 42.3822 40.8613 35.1368 38.285 28.6076C35.7086 22.0784 33.6012 16.7145 33.6012 16.6971C33.6012 16.6797 35.6925 16.669 38.2475 16.6811L42.8952 16.7038L47.8876 29.2517L52.8801 41.7996L52.9054 29.3399C52.9228 20.694 52.9054 16.7078 52.8346 16.3163C52.7592 15.9368 52.6367 15.5682 52.4698 15.2192C51.9353 14.1688 51.8391 14.1007 44.8529 10.0771L36.9179 5.50423L28.1812 0.400891C28.1812 0.400891 27.5638 0 26.3718 0C25.1798 0 24.6961 0.400891 24.6961 0.400891L15.2992 5.87973ZM22.5246 24.9889C24.06 29.5697 25.5072 33.8927 25.7397 34.5942L26.1634 35.869L28.7838 28.0624C30.227 23.7635 31.4925 19.9777 31.5981 19.6437C31.7037 19.3096 31.8132 19.0477 31.8426 19.0477C31.872 19.0477 33.0159 21.9033 34.3816 25.3924L36.8818 31.7359L33.2271 42.604L29.5736 53.4708L26.1781 53.4935L22.7825 53.5163L21.0079 48.2405C20.0324 45.3354 17.2475 37.0557 14.8181 29.8423C12.3887 22.629 10.4083 16.7118 10.4083 16.6958C10.4083 16.6797 12.5077 16.665 15.0734 16.665H19.7397L22.5246 24.9889Z" fill="url(#paint0_linear_527_5)"/>
    <defs>
        <linearGradient id="paint0_linear_527_5" x1="26.4587" y1="0" x2="26.4587" y2="60" gradientUnits="userSpaceOnUse">
            <stop stop-color="#25A8DF"/>
            <stop offset="0.56" stop-color="#075884"/>
            <stop offset="1" stop-color="#001F48"/>
        </linearGradient>
    </defs>
</svg>
