<svg width="113" height="166" viewBox="0 0 113 166" fill="none" xmlns="http://www.w3.org/2000/svg">
<g clip-path="url(#clip0_84_158)">
<path d="M112.61 56.9C112.61 25.48 87.4 0 56.3 0C25.2 0 -0.0199933 25.45 -0.0199933 56.9C-0.0371785 64.4346 1.43962 71.8978 4.32499 78.8581C7.21036 85.8183 11.447 92.1375 16.79 97.45C17.54 98.83 50.27 159.79 51.98 162.89C53.69 165.99 56.3 165.71 56.3 165.71C59.7 165.71 60.44 162.19 60.44 162.19L61.86 159.83L94.41 98.83C100.173 93.4752 104.765 86.9855 107.897 79.7693C111.029 72.5531 112.634 64.7666 112.61 56.9Z" fill="#043963"/>
<path d="M109.61 55.45C109.608 66.0748 106.455 76.4604 100.551 85.2935C94.6465 94.1266 86.2553 101.01 76.4385 105.075C66.6217 109.139 55.8202 110.201 45.3999 108.126C34.9796 106.051 25.4086 100.933 17.8971 93.4187C10.3856 85.9044 5.27107 76.3315 3.20021 65.9104C1.12935 55.4894 2.1952 44.6883 6.26297 34.873C10.3307 25.0577 17.2177 16.6691 26.053 10.7679C34.8883 4.86668 45.2751 1.71799 55.8999 1.71997C62.9549 1.71997 69.9408 3.10987 76.4585 5.8103C82.9762 8.51073 88.898 12.4688 93.8857 17.4583C98.8734 22.4479 102.829 28.3712 105.527 34.8899C108.225 41.4086 109.613 48.395 109.61 55.45V55.45Z" fill="url(#paint0_linear_84_158)"/>
<path d="M108.11 56.3C108.112 47.6788 105.963 39.1934 101.857 31.6126C97.7518 24.0319 91.8193 17.5955 84.5977 12.8868C77.376 8.17811 69.0935 5.34591 60.5008 4.64691C51.908 3.94791 43.2766 5.40419 35.3889 8.88379C27.5011 12.3634 20.6064 17.7563 15.3294 24.5738C10.0525 31.3912 6.56016 39.4178 5.169 47.9259C3.77783 56.4341 4.53178 65.1549 7.36252 73.2981C10.1933 81.4412 15.0113 88.7493 21.38 94.56C36.32 124.91 56.31 161.29 56.31 161.29L92.56 93.2899C97.4876 88.4728 101.402 82.7186 104.072 76.3661C106.743 70.0135 108.116 63.191 108.11 56.3V56.3Z" fill="url(#paint1_linear_84_158)"/>
<path d="M106.2 55.45C106.2 82.64 83.78 104.68 56.12 104.68C28.46 104.68 5.97998 82.67 5.97998 55.45C5.97998 28.23 28.41 6.21997 56.08 6.21997C83.75 6.21997 106.2 28.29 106.2 55.45Z" fill="url(#paint2_linear_84_158)"/>
<path d="M103.73 55.39C103.732 64.8103 100.94 74.0197 95.7084 81.8535C90.4764 89.6873 83.0389 95.7937 74.3364 99.4006C65.634 103.007 56.0573 103.953 46.8176 102.117C37.5779 100.281 29.0901 95.7464 22.4276 89.0866C15.765 82.4268 11.2269 73.9409 9.38714 64.702C7.54739 55.463 8.48861 45.886 12.0918 37.182C15.695 28.478 21.7983 21.038 29.6299 15.8027C37.4615 10.5674 46.6697 7.772 56.09 7.77002C62.3449 7.76871 68.5387 8.99938 74.318 11.3918C80.0972 13.7842 85.3486 17.2915 89.7724 21.7134C94.1962 26.1354 97.7057 31.3853 100.101 37.1636C102.495 42.9418 103.729 49.1352 103.73 55.39V55.39Z" fill="#043963"/>
<path d="M100.58 55.3899C100.582 64.1901 97.9741 72.7931 93.0862 80.111C88.1984 87.4289 81.2501 93.1328 73.1202 96.5014C64.9903 99.87 56.044 100.752 47.4129 99.0355C38.7817 97.3192 30.8535 93.0817 24.6308 86.8591C18.4082 80.6364 14.1707 72.7082 12.4544 64.077C10.738 55.4459 11.6199 46.4996 14.9885 38.3697C18.3571 30.2398 24.061 23.2915 31.3789 18.4037C38.6968 13.5158 47.2999 10.9079 56.1 10.9099C67.8968 10.9099 79.2105 15.5962 87.5521 23.9378C95.8937 32.2794 100.58 43.5931 100.58 55.3899Z" fill="url(#paint3_radial_84_158)"/>
<path d="M47.49 40.5601L47.23 42.1701H47.74L47.49 40.5601Z" fill="url(#paint4_linear_84_158)"/>
<path fill-rule="evenodd" clip-rule="evenodd" d="M45.2992 30.8797C44.134 31.5559 40.6034 33.5898 37.4551 35.4018C33.2444 37.8285 31.5954 38.8214 31.2266 39.1648C30.655 39.6907 30.2562 40.3774 30.0827 41.1345C30.0079 41.4927 29.9879 44.9243 30.0066 54.1702L30.0333 66.718L34.5767 56.0116C37.0823 50.1225 39.1469 45.3252 39.1763 45.3572C39.2057 45.3893 40.1691 48.2156 41.3144 51.6379L43.4017 57.8597L39.9887 65.8668C38.1179 70.2766 36.5625 73.9341 36.5451 74.0076C36.509 74.1639 54.3861 84.5149 55.2052 84.8129C56.0335 85.0729 56.9233 85.0608 57.7442 84.7782C58.4671 84.4976 76.3068 74.18 76.3068 74.0437C76.3068 73.9835 75.5558 72.0325 74.6377 69.7074C73.7197 67.3822 70.8613 60.1368 68.285 53.6076C65.7086 47.0784 63.6012 41.7145 63.6012 41.6971C63.6012 41.6797 65.6925 41.669 68.2475 41.6811L72.8952 41.7038L77.8876 54.2517L82.8801 66.7996L82.9054 54.3399C82.9228 45.694 82.9054 41.7078 82.8346 41.3163C82.7592 40.9368 82.6367 40.5682 82.4698 40.2192C81.9353 39.1688 81.8391 39.1007 74.8529 35.0771L66.9179 30.5042L58.1812 25.4009C58.1812 25.4009 57.5638 25 56.3718 25C55.1798 25 54.6961 25.4009 54.6961 25.4009L45.2992 30.8797ZM52.5246 49.9889C54.06 54.5697 55.5072 58.8927 55.7397 59.5942L56.1634 60.869L58.7838 53.0624C60.227 48.7635 61.4925 44.9777 61.5981 44.6437C61.7037 44.3096 61.8132 44.0477 61.8426 44.0477C61.872 44.0477 63.0159 46.9033 64.3816 50.3924L66.8818 56.7359L63.227 67.604L59.5736 78.4708L56.1781 78.4935L52.7825 78.5163L51.0079 73.2405C50.0324 70.3354 47.2475 62.0557 44.8181 54.8423C42.3887 47.629 40.4083 41.7118 40.4083 41.6958C40.4083 41.6797 42.5077 41.665 45.0734 41.665H49.7397L52.5246 49.9889Z" fill="url(#paint5_linear_84_158)"/>
</g>
<defs>
<linearGradient id="paint0_linear_84_158" x1="19.9499" y1="15.47" x2="91.8399" y2="95.32" gradientUnits="userSpaceOnUse">
<stop stop-color="white"/>
<stop offset="0.07" stop-color="white"/>
<stop offset="0.56" stop-color="white"/>
</linearGradient>
<linearGradient id="paint1_linear_84_158" x1="56" y1="-0.5" x2="56" y2="161" gradientUnits="userSpaceOnUse">
<stop stop-color="#229FD5"/>
<stop offset="1" stop-color="#02366C"/>
</linearGradient>
<linearGradient id="paint2_linear_84_158" x1="106.2" y1="55.48" x2="6.01998" y2="55.48" gradientUnits="userSpaceOnUse">
<stop stop-color="white"/>
<stop offset="0.07" stop-color="white"/>
<stop offset="0.56" stop-color="white"/>
</linearGradient>
<radialGradient id="paint3_radial_84_158" cx="0" cy="0" r="1" gradientUnits="userSpaceOnUse" gradientTransform="translate(56.1 55.3899) scale(44.49 44.49)">
<stop offset="0.43" stop-color="white"/>
<stop offset="0.67" stop-color="#FDFDFD"/>
<stop offset="0.75" stop-color="#F6F6F6"/>
<stop offset="0.82" stop-color="#EBEBEB"/>
<stop offset="0.86" stop-color="#DADADA"/>
<stop offset="0.91" stop-color="#C4C4C4"/>
<stop offset="0.94" stop-color="#A9A8A8"/>
<stop offset="0.98" stop-color="#8A8989"/>
<stop offset="1" stop-color="#706F6F"/>
</radialGradient>
<linearGradient id="paint4_linear_84_158" x1="47.23" y1="41.3701" x2="47.74" y2="41.3701" gradientUnits="userSpaceOnUse">
<stop stop-color="#219CD2"/>
<stop offset="0.99" stop-color="#02366C"/>
</linearGradient>
<linearGradient id="paint5_linear_84_158" x1="56.4587" y1="25" x2="56.4587" y2="85" gradientUnits="userSpaceOnUse">
<stop stop-color="#25A8DF"/>
<stop offset="0.56" stop-color="#075884"/>
<stop offset="1" stop-color="#001F48"/>
</linearGradient>
<clipPath id="clip0_84_158">
<rect width="112.61" height="165.69" fill="white"/>
</clipPath>
</defs>
</svg>
