<svg width="12" height="12" viewBox="0 0 12 12" fill="none" xmlns="http://www.w3.org/2000/svg">
    <path d="M1.12806 11.9943C1.37258 11.9943 1.63586 11.8941 1.90975 11.7053L8.57442 7.11383C9.00344 6.81835 9.23706 6.42075 9.23706 5.99387C9.23716 5.5669 8.99926 5.16901 8.57015 4.87353L1.89973 0.285363C1.62536 0.0964832 1.35099 9.64937e-07 1.10696 9.64937e-07H1.10667C0.845036 9.64937e-07 0.646722 0.107084 0.492078 0.315416C0.339671 0.521122 0.280828 0.813293 0.280828 1.16674L0.280828 10.8205C0.280731 11.5443 0.591673 11.9943 1.12806 11.9943Z" fill="white"/>
    <path d="M10.7088 11.9991L11.0301 12C11.3918 12 11.7192 11.7055 11.7192 11.3436L11.7192 0.659037C11.7192 0.297131 11.4026 9.72914e-05 11.0407 9.72914e-05H11.0296L10.7147 0.00184776C10.3529 0.00184776 10.0317 0.297617 10.0317 0.659523L10.0317 11.3428C10.0316 11.7047 10.3474 11.9991 10.7088 11.9991Z" fill="white"/>
</svg>
