<svg width="36" height="36" viewBox="0 0 36 36" fill="#022346" xmlns="http://www.w3.org/2000/svg">
    <g clip-path="url(#clip0_41_1362)">
        <path d="M12.0002 8.57104H10.2857V1.71401H3.42871V-0.000488281H12.0002V8.57104Z" />
        <path d="M18 35.9993C8.07876 35.9993 7.53086e-05 27.921 7.53086e-05 17.9994C-0.0140499 13.1309 1.9594 8.46772 5.46434 5.08897L10.5538 0.235229L11.7322 1.47825L6.65368 6.321C3.48461 9.37801 1.70075 13.5961 1.71456 17.9994C1.71456 26.978 9.02169 34.2852 18 34.2852V35.9993Z" />
        <path d="M32.5715 35.9993H24V27.4281H25.7142V34.2851H32.5715V35.9993Z" />
        <path d="M25.4465 35.7636L24.2678 34.5209L29.3463 29.6782C32.5154 26.6208 34.2996 22.4027 34.2857 17.9994C34.2857 9.02113 26.9786 1.714 18 1.714V-0.000488281C27.9216 -0.000488281 35.9999 8.07819 35.9999 17.9994C36.0144 22.8679 34.0406 27.5311 30.5357 30.9102L25.4465 35.7636Z" />
        <path d="M17.132 24.3529L8.31445 15.5353L9.52514 14.3246L17.132 21.9315L28.1893 10.8746L29.4 12.0853L17.132 24.3529Z" />
    </g>
    <defs>
        <clipPath id="clip0_41_1362">
            <rect width="36" height="36" fill="white" transform="translate(0 -0.000610352)"/>
        </clipPath>
    </defs>
</svg>
