<svg width="30" height="31" viewBox="0 0 30 31" fill="none" xmlns="http://www.w3.org/2000/svg">
    <g clip-path="url(#clip0_4_108)">
        <path d="M15 0.5C6.717 0.5 0 7.217 0 15.5C0 23.783 6.717 30.5 15 30.5C23.283 30.5 30 23.783 30 15.5C30 7.217 23.283 0.5 15 0.5ZM15.3179 24.2334C15.3177 24.2334 15.3181 24.2334 15.3179 24.2334H15.3143C13.8116 24.2328 12.3351 23.856 11.0239 23.141L6.26472 24.3891L7.53845 19.7382C6.7527 18.3773 6.33934 16.8332 6.34003 15.2514C6.34209 10.303 10.3695 6.27721 15.3179 6.27721C17.7193 6.27812 19.9736 7.21288 21.6685 8.90912C23.3636 10.6056 24.2965 12.8605 24.2956 15.2585C24.2935 20.2072 20.2657 24.2334 15.3179 24.2334Z"
              fill="white"/>
        <path d="M15.3209 7.7915C11.2049 7.7915 7.85754 11.1375 7.85571 15.2505C7.85526 16.66 8.24985 18.0326 8.99669 19.2203L9.17407 19.5025L8.42014 22.2552L11.2443 21.5146L11.5169 21.6762C12.6625 22.3559 13.9758 22.7155 15.3148 22.716H15.3177C19.4305 22.716 22.7779 19.3697 22.7797 15.2565C22.7804 13.2632 22.005 11.3891 20.5962 9.97916C19.1874 8.56924 17.3138 7.79219 15.3209 7.7915ZM19.71 18.4576C19.523 18.9813 18.6269 19.4594 18.1959 19.524C17.8093 19.5817 17.3204 19.6057 16.783 19.4352C16.4571 19.3317 16.0394 19.1937 15.504 18.9628C13.2539 17.9914 11.7842 15.7264 11.6721 15.5767C11.5599 15.427 10.7561 14.3606 10.7561 13.2567C10.7561 12.1531 11.3356 11.6104 11.5412 11.3861C11.7469 11.1616 11.99 11.1055 12.1395 11.1055C12.2889 11.1055 12.4386 11.1069 12.5693 11.1133C12.7071 11.1201 12.892 11.0609 13.074 11.4982C13.261 11.9473 13.7096 13.051 13.7657 13.1631C13.8218 13.2755 13.8591 13.4064 13.7844 13.5561C13.7096 13.7058 13.461 14.0288 13.2237 14.3231C13.1241 14.4465 12.9943 14.5563 13.1253 14.7809C13.256 15.0052 13.7064 15.7397 14.3731 16.3343C15.2301 17.0983 15.9529 17.335 16.1772 17.4473C16.4013 17.5595 16.5322 17.5407 16.6631 17.3913C16.7938 17.2416 17.2239 16.7364 17.3733 16.5119C17.5228 16.2874 17.6725 16.3249 17.878 16.3997C18.0838 16.4744 19.1865 17.017 19.4108 17.1292C19.6351 17.2416 19.7846 17.2977 19.8407 17.3913C19.897 17.4849 19.897 17.9337 19.71 18.4576Z"
              fill="white"/>
    </g>
    <defs>
        <clipPath id="clip0_4_108">
            <rect width="30" height="30" fill="white" transform="translate(0 0.5)"/>
        </clipPath>
    </defs>
</svg>
